%TF.GenerationSoftware,KiCad,Pcbnew,8.0.0*%
%TF.CreationDate,2024-05-09T13:21:52+02:00*%
%TF.ProjectId,LogUnit,4c6f6755-6e69-4742-9e6b-696361645f70,rev?*%
%TF.SameCoordinates,Original*%
%TF.FileFunction,Soldermask,Top*%
%TF.FilePolarity,Negative*%
%FSLAX46Y46*%
G04 Gerber Fmt 4.6, Leading zero omitted, Abs format (unit mm)*
G04 Created by KiCad (PCBNEW 8.0.0) date 2024-05-09 13:21:52*
%MOMM*%
%LPD*%
G01*
G04 APERTURE LIST*
G04 Aperture macros list*
%AMRoundRect*
0 Rectangle with rounded corners*
0 $1 Rounding radius*
0 $2 $3 $4 $5 $6 $7 $8 $9 X,Y pos of 4 corners*
0 Add a 4 corners polygon primitive as box body*
4,1,4,$2,$3,$4,$5,$6,$7,$8,$9,$2,$3,0*
0 Add four circle primitives for the rounded corners*
1,1,$1+$1,$2,$3*
1,1,$1+$1,$4,$5*
1,1,$1+$1,$6,$7*
1,1,$1+$1,$8,$9*
0 Add four rect primitives between the rounded corners*
20,1,$1+$1,$2,$3,$4,$5,0*
20,1,$1+$1,$4,$5,$6,$7,0*
20,1,$1+$1,$6,$7,$8,$9,0*
20,1,$1+$1,$8,$9,$2,$3,0*%
G04 Aperture macros list end*
%ADD10R,1.700000X1.700000*%
%ADD11O,1.700000X1.700000*%
%ADD12O,2.000000X1.500000*%
%ADD13RoundRect,0.160000X-0.160000X0.197500X-0.160000X-0.197500X0.160000X-0.197500X0.160000X0.197500X0*%
%ADD14RoundRect,0.100000X0.100000X-0.217500X0.100000X0.217500X-0.100000X0.217500X-0.100000X-0.217500X0*%
G04 APERTURE END LIST*
D10*
%TO.C,U3*%
X120585000Y-69830000D03*
D11*
X118045000Y-69830000D03*
X115505000Y-69830000D03*
X112965000Y-69830000D03*
X110425000Y-69830000D03*
X107885000Y-69830000D03*
X105345000Y-69830000D03*
X102805000Y-69830000D03*
%TD*%
D12*
%TO.C,U1*%
X104080000Y-79290000D03*
X104080000Y-81830000D03*
X104080000Y-84370000D03*
X104080000Y-86910000D03*
X104080000Y-89450000D03*
X104080000Y-91990000D03*
X104080000Y-94530000D03*
X104080000Y-97070000D03*
X104080000Y-99610000D03*
X104080000Y-102150000D03*
X104080000Y-104690000D03*
X104080000Y-107230000D03*
X104080000Y-109770000D03*
X104080000Y-112310000D03*
X104080000Y-114850000D03*
X104080000Y-117390000D03*
X104080000Y-119930000D03*
X119320000Y-119930000D03*
X119320000Y-117390000D03*
X119320000Y-114850000D03*
X119320000Y-112310000D03*
X119320000Y-109770000D03*
X119320000Y-107230000D03*
X119320000Y-104690000D03*
X119320000Y-102150000D03*
X119320000Y-99610000D03*
X119320000Y-97070000D03*
X119320000Y-94530000D03*
X119320000Y-91990000D03*
X119320000Y-89450000D03*
X119320000Y-86910000D03*
X119320000Y-84370000D03*
X119320000Y-81830000D03*
X119320000Y-79290000D03*
%TD*%
D13*
%TO.C,R3*%
X107250000Y-121652500D03*
X107250000Y-122847500D03*
%TD*%
D14*
%TO.C,D2*%
X111000000Y-127000000D03*
X111000000Y-126185000D03*
%TD*%
D13*
%TO.C,R2*%
X111000000Y-121652500D03*
X111000000Y-122847500D03*
%TD*%
D14*
%TO.C,D1*%
X114750000Y-126907500D03*
X114750000Y-126092500D03*
%TD*%
%TO.C,D3*%
X107250000Y-126907500D03*
X107250000Y-126092500D03*
%TD*%
D13*
%TO.C,R1*%
X114750000Y-121652500D03*
X114750000Y-122847500D03*
%TD*%
M02*
