%TF.GenerationSoftware,KiCad,Pcbnew,8.0.0*%
%TF.CreationDate,2024-05-09T13:21:52+02:00*%
%TF.ProjectId,LogUnit,4c6f6755-6e69-4742-9e6b-696361645f70,rev?*%
%TF.SameCoordinates,Original*%
%TF.FileFunction,Legend,Top*%
%TF.FilePolarity,Positive*%
%FSLAX46Y46*%
G04 Gerber Fmt 4.6, Leading zero omitted, Abs format (unit mm)*
G04 Created by KiCad (PCBNEW 8.0.0) date 2024-05-09 13:21:52*
%MOMM*%
%LPD*%
G01*
G04 APERTURE LIST*
%ADD10C,0.150000*%
%ADD11C,0.100000*%
%ADD12C,0.120000*%
G04 APERTURE END LIST*
D10*
X122369819Y-70591904D02*
X123179342Y-70591904D01*
X123179342Y-70591904D02*
X123274580Y-70544285D01*
X123274580Y-70544285D02*
X123322200Y-70496666D01*
X123322200Y-70496666D02*
X123369819Y-70401428D01*
X123369819Y-70401428D02*
X123369819Y-70210952D01*
X123369819Y-70210952D02*
X123322200Y-70115714D01*
X123322200Y-70115714D02*
X123274580Y-70068095D01*
X123274580Y-70068095D02*
X123179342Y-70020476D01*
X123179342Y-70020476D02*
X122369819Y-70020476D01*
X122369819Y-69639523D02*
X122369819Y-69020476D01*
X122369819Y-69020476D02*
X122750771Y-69353809D01*
X122750771Y-69353809D02*
X122750771Y-69210952D01*
X122750771Y-69210952D02*
X122798390Y-69115714D01*
X122798390Y-69115714D02*
X122846009Y-69068095D01*
X122846009Y-69068095D02*
X122941247Y-69020476D01*
X122941247Y-69020476D02*
X123179342Y-69020476D01*
X123179342Y-69020476D02*
X123274580Y-69068095D01*
X123274580Y-69068095D02*
X123322200Y-69115714D01*
X123322200Y-69115714D02*
X123369819Y-69210952D01*
X123369819Y-69210952D02*
X123369819Y-69496666D01*
X123369819Y-69496666D02*
X123322200Y-69591904D01*
X123322200Y-69591904D02*
X123274580Y-69639523D01*
D11*
X104504836Y-74721228D02*
X103838169Y-74006942D01*
X103361979Y-74721228D02*
X103361979Y-73221228D01*
X103361979Y-73221228D02*
X104123884Y-73221228D01*
X104123884Y-73221228D02*
X104314360Y-73292657D01*
X104314360Y-73292657D02*
X104409598Y-73364085D01*
X104409598Y-73364085D02*
X104504836Y-73506942D01*
X104504836Y-73506942D02*
X104504836Y-73721228D01*
X104504836Y-73721228D02*
X104409598Y-73864085D01*
X104409598Y-73864085D02*
X104314360Y-73935514D01*
X104314360Y-73935514D02*
X104123884Y-74006942D01*
X104123884Y-74006942D02*
X103361979Y-74006942D01*
X106028646Y-73935514D02*
X105361979Y-73935514D01*
X105361979Y-74721228D02*
X105361979Y-73221228D01*
X105361979Y-73221228D02*
X106314360Y-73221228D01*
X107076265Y-74721228D02*
X107076265Y-73221228D01*
X108028646Y-74721228D02*
X108028646Y-73221228D01*
X108028646Y-73221228D02*
X108504836Y-73221228D01*
X108504836Y-73221228D02*
X108790551Y-73292657D01*
X108790551Y-73292657D02*
X108981027Y-73435514D01*
X108981027Y-73435514D02*
X109076265Y-73578371D01*
X109076265Y-73578371D02*
X109171503Y-73864085D01*
X109171503Y-73864085D02*
X109171503Y-74078371D01*
X109171503Y-74078371D02*
X109076265Y-74364085D01*
X109076265Y-74364085D02*
X108981027Y-74506942D01*
X108981027Y-74506942D02*
X108790551Y-74649800D01*
X108790551Y-74649800D02*
X108504836Y-74721228D01*
X108504836Y-74721228D02*
X108028646Y-74721228D01*
X110028646Y-74149800D02*
X111552456Y-74149800D01*
X113647693Y-74721228D02*
X112981026Y-74006942D01*
X112504836Y-74721228D02*
X112504836Y-73221228D01*
X112504836Y-73221228D02*
X113266741Y-73221228D01*
X113266741Y-73221228D02*
X113457217Y-73292657D01*
X113457217Y-73292657D02*
X113552455Y-73364085D01*
X113552455Y-73364085D02*
X113647693Y-73506942D01*
X113647693Y-73506942D02*
X113647693Y-73721228D01*
X113647693Y-73721228D02*
X113552455Y-73864085D01*
X113552455Y-73864085D02*
X113457217Y-73935514D01*
X113457217Y-73935514D02*
X113266741Y-74006942D01*
X113266741Y-74006942D02*
X112504836Y-74006942D01*
X115647693Y-74578371D02*
X115552455Y-74649800D01*
X115552455Y-74649800D02*
X115266741Y-74721228D01*
X115266741Y-74721228D02*
X115076265Y-74721228D01*
X115076265Y-74721228D02*
X114790550Y-74649800D01*
X114790550Y-74649800D02*
X114600074Y-74506942D01*
X114600074Y-74506942D02*
X114504836Y-74364085D01*
X114504836Y-74364085D02*
X114409598Y-74078371D01*
X114409598Y-74078371D02*
X114409598Y-73864085D01*
X114409598Y-73864085D02*
X114504836Y-73578371D01*
X114504836Y-73578371D02*
X114600074Y-73435514D01*
X114600074Y-73435514D02*
X114790550Y-73292657D01*
X114790550Y-73292657D02*
X115076265Y-73221228D01*
X115076265Y-73221228D02*
X115266741Y-73221228D01*
X115266741Y-73221228D02*
X115552455Y-73292657D01*
X115552455Y-73292657D02*
X115647693Y-73364085D01*
X117457217Y-73221228D02*
X116504836Y-73221228D01*
X116504836Y-73221228D02*
X116409598Y-73935514D01*
X116409598Y-73935514D02*
X116504836Y-73864085D01*
X116504836Y-73864085D02*
X116695312Y-73792657D01*
X116695312Y-73792657D02*
X117171503Y-73792657D01*
X117171503Y-73792657D02*
X117361979Y-73864085D01*
X117361979Y-73864085D02*
X117457217Y-73935514D01*
X117457217Y-73935514D02*
X117552455Y-74078371D01*
X117552455Y-74078371D02*
X117552455Y-74435514D01*
X117552455Y-74435514D02*
X117457217Y-74578371D01*
X117457217Y-74578371D02*
X117361979Y-74649800D01*
X117361979Y-74649800D02*
X117171503Y-74721228D01*
X117171503Y-74721228D02*
X116695312Y-74721228D01*
X116695312Y-74721228D02*
X116504836Y-74649800D01*
X116504836Y-74649800D02*
X116409598Y-74578371D01*
X118314360Y-73364085D02*
X118409598Y-73292657D01*
X118409598Y-73292657D02*
X118600074Y-73221228D01*
X118600074Y-73221228D02*
X119076265Y-73221228D01*
X119076265Y-73221228D02*
X119266741Y-73292657D01*
X119266741Y-73292657D02*
X119361979Y-73364085D01*
X119361979Y-73364085D02*
X119457217Y-73506942D01*
X119457217Y-73506942D02*
X119457217Y-73649800D01*
X119457217Y-73649800D02*
X119361979Y-73864085D01*
X119361979Y-73864085D02*
X118219122Y-74721228D01*
X118219122Y-74721228D02*
X119457217Y-74721228D01*
X120219122Y-73364085D02*
X120314360Y-73292657D01*
X120314360Y-73292657D02*
X120504836Y-73221228D01*
X120504836Y-73221228D02*
X120981027Y-73221228D01*
X120981027Y-73221228D02*
X121171503Y-73292657D01*
X121171503Y-73292657D02*
X121266741Y-73364085D01*
X121266741Y-73364085D02*
X121361979Y-73506942D01*
X121361979Y-73506942D02*
X121361979Y-73649800D01*
X121361979Y-73649800D02*
X121266741Y-73864085D01*
X121266741Y-73864085D02*
X120123884Y-74721228D01*
X120123884Y-74721228D02*
X121361979Y-74721228D01*
X111782580Y-101388095D02*
X110973057Y-101388095D01*
X110973057Y-101388095D02*
X110877819Y-101435714D01*
X110877819Y-101435714D02*
X110830200Y-101483333D01*
X110830200Y-101483333D02*
X110782580Y-101578571D01*
X110782580Y-101578571D02*
X110782580Y-101769047D01*
X110782580Y-101769047D02*
X110830200Y-101864285D01*
X110830200Y-101864285D02*
X110877819Y-101911904D01*
X110877819Y-101911904D02*
X110973057Y-101959523D01*
X110973057Y-101959523D02*
X111782580Y-101959523D01*
X110782580Y-102959523D02*
X110782580Y-102388095D01*
X110782580Y-102673809D02*
X111782580Y-102673809D01*
X111782580Y-102673809D02*
X111639723Y-102578571D01*
X111639723Y-102578571D02*
X111544485Y-102483333D01*
X111544485Y-102483333D02*
X111496866Y-102388095D01*
D10*
X108874819Y-122416666D02*
X108398628Y-122749999D01*
X108874819Y-122988094D02*
X107874819Y-122988094D01*
X107874819Y-122988094D02*
X107874819Y-122607142D01*
X107874819Y-122607142D02*
X107922438Y-122511904D01*
X107922438Y-122511904D02*
X107970057Y-122464285D01*
X107970057Y-122464285D02*
X108065295Y-122416666D01*
X108065295Y-122416666D02*
X108208152Y-122416666D01*
X108208152Y-122416666D02*
X108303390Y-122464285D01*
X108303390Y-122464285D02*
X108351009Y-122511904D01*
X108351009Y-122511904D02*
X108398628Y-122607142D01*
X108398628Y-122607142D02*
X108398628Y-122988094D01*
X107874819Y-122083332D02*
X107874819Y-121464285D01*
X107874819Y-121464285D02*
X108255771Y-121797618D01*
X108255771Y-121797618D02*
X108255771Y-121654761D01*
X108255771Y-121654761D02*
X108303390Y-121559523D01*
X108303390Y-121559523D02*
X108351009Y-121511904D01*
X108351009Y-121511904D02*
X108446247Y-121464285D01*
X108446247Y-121464285D02*
X108684342Y-121464285D01*
X108684342Y-121464285D02*
X108779580Y-121511904D01*
X108779580Y-121511904D02*
X108827200Y-121559523D01*
X108827200Y-121559523D02*
X108874819Y-121654761D01*
X108874819Y-121654761D02*
X108874819Y-121940475D01*
X108874819Y-121940475D02*
X108827200Y-122035713D01*
X108827200Y-122035713D02*
X108779580Y-122083332D01*
X110404819Y-127330594D02*
X109404819Y-127330594D01*
X109404819Y-127330594D02*
X109404819Y-127092499D01*
X109404819Y-127092499D02*
X109452438Y-126949642D01*
X109452438Y-126949642D02*
X109547676Y-126854404D01*
X109547676Y-126854404D02*
X109642914Y-126806785D01*
X109642914Y-126806785D02*
X109833390Y-126759166D01*
X109833390Y-126759166D02*
X109976247Y-126759166D01*
X109976247Y-126759166D02*
X110166723Y-126806785D01*
X110166723Y-126806785D02*
X110261961Y-126854404D01*
X110261961Y-126854404D02*
X110357200Y-126949642D01*
X110357200Y-126949642D02*
X110404819Y-127092499D01*
X110404819Y-127092499D02*
X110404819Y-127330594D01*
X109500057Y-126378213D02*
X109452438Y-126330594D01*
X109452438Y-126330594D02*
X109404819Y-126235356D01*
X109404819Y-126235356D02*
X109404819Y-125997261D01*
X109404819Y-125997261D02*
X109452438Y-125902023D01*
X109452438Y-125902023D02*
X109500057Y-125854404D01*
X109500057Y-125854404D02*
X109595295Y-125806785D01*
X109595295Y-125806785D02*
X109690533Y-125806785D01*
X109690533Y-125806785D02*
X109833390Y-125854404D01*
X109833390Y-125854404D02*
X110404819Y-126425832D01*
X110404819Y-126425832D02*
X110404819Y-125806785D01*
X112624819Y-122416666D02*
X112148628Y-122749999D01*
X112624819Y-122988094D02*
X111624819Y-122988094D01*
X111624819Y-122988094D02*
X111624819Y-122607142D01*
X111624819Y-122607142D02*
X111672438Y-122511904D01*
X111672438Y-122511904D02*
X111720057Y-122464285D01*
X111720057Y-122464285D02*
X111815295Y-122416666D01*
X111815295Y-122416666D02*
X111958152Y-122416666D01*
X111958152Y-122416666D02*
X112053390Y-122464285D01*
X112053390Y-122464285D02*
X112101009Y-122511904D01*
X112101009Y-122511904D02*
X112148628Y-122607142D01*
X112148628Y-122607142D02*
X112148628Y-122988094D01*
X111720057Y-122035713D02*
X111672438Y-121988094D01*
X111672438Y-121988094D02*
X111624819Y-121892856D01*
X111624819Y-121892856D02*
X111624819Y-121654761D01*
X111624819Y-121654761D02*
X111672438Y-121559523D01*
X111672438Y-121559523D02*
X111720057Y-121511904D01*
X111720057Y-121511904D02*
X111815295Y-121464285D01*
X111815295Y-121464285D02*
X111910533Y-121464285D01*
X111910533Y-121464285D02*
X112053390Y-121511904D01*
X112053390Y-121511904D02*
X112624819Y-122083332D01*
X112624819Y-122083332D02*
X112624819Y-121464285D01*
X114154819Y-127238094D02*
X113154819Y-127238094D01*
X113154819Y-127238094D02*
X113154819Y-126999999D01*
X113154819Y-126999999D02*
X113202438Y-126857142D01*
X113202438Y-126857142D02*
X113297676Y-126761904D01*
X113297676Y-126761904D02*
X113392914Y-126714285D01*
X113392914Y-126714285D02*
X113583390Y-126666666D01*
X113583390Y-126666666D02*
X113726247Y-126666666D01*
X113726247Y-126666666D02*
X113916723Y-126714285D01*
X113916723Y-126714285D02*
X114011961Y-126761904D01*
X114011961Y-126761904D02*
X114107200Y-126857142D01*
X114107200Y-126857142D02*
X114154819Y-126999999D01*
X114154819Y-126999999D02*
X114154819Y-127238094D01*
X114154819Y-125714285D02*
X114154819Y-126285713D01*
X114154819Y-125999999D02*
X113154819Y-125999999D01*
X113154819Y-125999999D02*
X113297676Y-126095237D01*
X113297676Y-126095237D02*
X113392914Y-126190475D01*
X113392914Y-126190475D02*
X113440533Y-126285713D01*
X106654819Y-127238094D02*
X105654819Y-127238094D01*
X105654819Y-127238094D02*
X105654819Y-126999999D01*
X105654819Y-126999999D02*
X105702438Y-126857142D01*
X105702438Y-126857142D02*
X105797676Y-126761904D01*
X105797676Y-126761904D02*
X105892914Y-126714285D01*
X105892914Y-126714285D02*
X106083390Y-126666666D01*
X106083390Y-126666666D02*
X106226247Y-126666666D01*
X106226247Y-126666666D02*
X106416723Y-126714285D01*
X106416723Y-126714285D02*
X106511961Y-126761904D01*
X106511961Y-126761904D02*
X106607200Y-126857142D01*
X106607200Y-126857142D02*
X106654819Y-126999999D01*
X106654819Y-126999999D02*
X106654819Y-127238094D01*
X105654819Y-126333332D02*
X105654819Y-125714285D01*
X105654819Y-125714285D02*
X106035771Y-126047618D01*
X106035771Y-126047618D02*
X106035771Y-125904761D01*
X106035771Y-125904761D02*
X106083390Y-125809523D01*
X106083390Y-125809523D02*
X106131009Y-125761904D01*
X106131009Y-125761904D02*
X106226247Y-125714285D01*
X106226247Y-125714285D02*
X106464342Y-125714285D01*
X106464342Y-125714285D02*
X106559580Y-125761904D01*
X106559580Y-125761904D02*
X106607200Y-125809523D01*
X106607200Y-125809523D02*
X106654819Y-125904761D01*
X106654819Y-125904761D02*
X106654819Y-126190475D01*
X106654819Y-126190475D02*
X106607200Y-126285713D01*
X106607200Y-126285713D02*
X106559580Y-126333332D01*
X116374819Y-122416666D02*
X115898628Y-122749999D01*
X116374819Y-122988094D02*
X115374819Y-122988094D01*
X115374819Y-122988094D02*
X115374819Y-122607142D01*
X115374819Y-122607142D02*
X115422438Y-122511904D01*
X115422438Y-122511904D02*
X115470057Y-122464285D01*
X115470057Y-122464285D02*
X115565295Y-122416666D01*
X115565295Y-122416666D02*
X115708152Y-122416666D01*
X115708152Y-122416666D02*
X115803390Y-122464285D01*
X115803390Y-122464285D02*
X115851009Y-122511904D01*
X115851009Y-122511904D02*
X115898628Y-122607142D01*
X115898628Y-122607142D02*
X115898628Y-122988094D01*
X116374819Y-121464285D02*
X116374819Y-122035713D01*
X116374819Y-121749999D02*
X115374819Y-121749999D01*
X115374819Y-121749999D02*
X115517676Y-121845237D01*
X115517676Y-121845237D02*
X115612914Y-121940475D01*
X115612914Y-121940475D02*
X115660533Y-122035713D01*
D12*
%TO.C,U3*%
X121915000Y-68500000D02*
X121915000Y-69830000D01*
X120585000Y-68500000D02*
X121915000Y-68500000D01*
X119315000Y-71160000D02*
X101475000Y-71160000D01*
X119315000Y-68500000D02*
X119315000Y-71160000D01*
X119315000Y-68500000D02*
X101475000Y-68500000D01*
X101475000Y-68500000D02*
X101475000Y-71160000D01*
%TO.C,U1*%
D11*
X102430000Y-74210000D02*
X120970000Y-74210000D01*
X120970000Y-128550000D01*
X102430000Y-128550000D01*
X102430000Y-74210000D01*
D12*
%TO.C,R3*%
X107630000Y-122082379D02*
X107630000Y-122417621D01*
X106870000Y-122082379D02*
X106870000Y-122417621D01*
D11*
%TO.C,D2*%
X111050000Y-127627500D02*
G75*
G02*
X110950000Y-127627500I-50000J0D01*
G01*
X110950000Y-127627500D02*
G75*
G02*
X111050000Y-127627500I50000J0D01*
G01*
D12*
%TO.C,R2*%
X111380000Y-122082379D02*
X111380000Y-122417621D01*
X110620000Y-122082379D02*
X110620000Y-122417621D01*
D11*
%TO.C,D1*%
X114800000Y-127535000D02*
G75*
G02*
X114700000Y-127535000I-50000J0D01*
G01*
X114700000Y-127535000D02*
G75*
G02*
X114800000Y-127535000I50000J0D01*
G01*
%TO.C,D3*%
X107300000Y-127535000D02*
G75*
G02*
X107200000Y-127535000I-50000J0D01*
G01*
X107200000Y-127535000D02*
G75*
G02*
X107300000Y-127535000I50000J0D01*
G01*
D12*
%TO.C,R1*%
X115130000Y-122082379D02*
X115130000Y-122417621D01*
X114370000Y-122082379D02*
X114370000Y-122417621D01*
%TD*%
M02*
