%TF.GenerationSoftware,KiCad,Pcbnew,8.0.0*%
%TF.CreationDate,2024-05-09T13:21:52+02:00*%
%TF.ProjectId,LogUnit,4c6f6755-6e69-4742-9e6b-696361645f70,rev?*%
%TF.SameCoordinates,Original*%
%TF.FileFunction,Copper,L2,Bot*%
%TF.FilePolarity,Positive*%
%FSLAX46Y46*%
G04 Gerber Fmt 4.6, Leading zero omitted, Abs format (unit mm)*
G04 Created by KiCad (PCBNEW 8.0.0) date 2024-05-09 13:21:52*
%MOMM*%
%LPD*%
G01*
G04 APERTURE LIST*
%TA.AperFunction,ComponentPad*%
%ADD10R,1.700000X1.700000*%
%TD*%
%TA.AperFunction,ComponentPad*%
%ADD11O,1.700000X1.700000*%
%TD*%
%TA.AperFunction,ComponentPad*%
%ADD12O,2.000000X1.500000*%
%TD*%
%TA.AperFunction,ViaPad*%
%ADD13C,0.600000*%
%TD*%
%TA.AperFunction,Conductor*%
%ADD14C,0.500000*%
%TD*%
G04 APERTURE END LIST*
D10*
%TO.P,U3,1,SS*%
%TO.N,SDA*%
X120585000Y-69830000D03*
D11*
%TO.P,U3,2,SCK*%
%TO.N,SCK*%
X118045000Y-69830000D03*
%TO.P,U3,3,MOSI*%
%TO.N,MOSI*%
X115505000Y-69830000D03*
%TO.P,U3,4,MISO*%
%TO.N,MISO*%
X112965000Y-69830000D03*
%TO.P,U3,5,IRQ*%
%TO.N,unconnected-(U3-IRQ-Pad5)*%
X110425000Y-69830000D03*
%TO.P,U3,6,GND*%
%TO.N,GND*%
X107885000Y-69830000D03*
%TO.P,U3,7,RST*%
%TO.N,RST*%
X105345000Y-69830000D03*
%TO.P,U3,8,VCC*%
%TO.N,+3.3V*%
X102805000Y-69830000D03*
%TD*%
D12*
%TO.P,U1,1,VBAT*%
%TO.N,unconnected-(U1-VBAT-Pad1)*%
X104080000Y-79290000D03*
%TO.P,U1,2,GND*%
%TO.N,unconnected-(U1-GND-Pad2)*%
X104080000Y-81830000D03*
%TO.P,U1,3,5V*%
%TO.N,unconnected-(U1-5V-Pad3)*%
X104080000Y-84370000D03*
%TO.P,U1,4,3V3*%
%TO.N,unconnected-(U1-3V3-Pad4)*%
X104080000Y-86910000D03*
%TO.P,U1,5,IO1*%
%TO.N,unconnected-(U1-IO1-Pad5)*%
X104080000Y-89450000D03*
%TO.P,U1,6,IO2*%
%TO.N,unconnected-(U1-IO2-Pad6)*%
X104080000Y-91990000D03*
%TO.P,U1,7,IO3*%
%TO.N,unconnected-(U1-IO3-Pad7)*%
X104080000Y-94530000D03*
%TO.P,U1,8,IO4*%
%TO.N,unconnected-(U1-IO4-Pad8)*%
X104080000Y-97070000D03*
%TO.P,U1,9,IO5*%
%TO.N,unconnected-(U1-IO5-Pad9)*%
X104080000Y-99610000D03*
%TO.P,U1,10,IO21*%
%TO.N,unconnected-(U1-IO21-Pad10)*%
X104080000Y-102150000D03*
%TO.P,U1,11,IO0*%
%TO.N,unconnected-(U1-IO0-Pad11)*%
X104080000Y-104690000D03*
%TO.P,U1,12,LDO2_OUT*%
%TO.N,unconnected-(U1-LDO2_OUT-Pad12)*%
X104080000Y-107230000D03*
%TO.P,U1,13,IO16*%
%TO.N,unconnected-(U1-IO16-Pad13)*%
X104080000Y-109770000D03*
%TO.P,U1,14,IO15*%
%TO.N,Net-(U1-IO15)*%
X104080000Y-112310000D03*
%TO.P,U1,15,IO14*%
%TO.N,Net-(U1-IO14)*%
X104080000Y-114850000D03*
%TO.P,U1,16,IO13*%
%TO.N,Net-(U1-IO13)*%
X104080000Y-117390000D03*
%TO.P,U1,17,IO12*%
%TO.N,unconnected-(U1-IO12-Pad17)*%
X104080000Y-119930000D03*
%TO.P,U1,18,IO42*%
%TO.N,unconnected-(U1-IO42-Pad18)*%
X119320000Y-119930000D03*
%TO.P,U1,19,IO41*%
%TO.N,unconnected-(U1-IO41-Pad19)*%
X119320000Y-117390000D03*
%TO.P,U1,20,IO40*%
%TO.N,unconnected-(U1-IO40-Pad20)*%
X119320000Y-114850000D03*
%TO.P,U1,21,IO39*%
%TO.N,unconnected-(U1-IO39-Pad21)*%
X119320000Y-112310000D03*
%TO.P,U1,22,IO38*%
%TO.N,unconnected-(U1-IO38-Pad22)*%
X119320000Y-109770000D03*
%TO.P,U1,23,RX*%
%TO.N,unconnected-(U1-RX-Pad23)*%
X119320000Y-107230000D03*
%TO.P,U1,24,TX*%
%TO.N,unconnected-(U1-TX-Pad24)*%
X119320000Y-104690000D03*
%TO.P,U1,25,GND*%
%TO.N,unconnected-(U1-GND-Pad25)*%
X119320000Y-102150000D03*
%TO.P,U1,26,RST*%
%TO.N,unconnected-(U1-RST-Pad26)*%
X119320000Y-99610000D03*
%TO.P,U1,27,IO6*%
%TO.N,unconnected-(U1-IO6-Pad27)*%
X119320000Y-97070000D03*
%TO.P,U1,28,IO7*%
%TO.N,unconnected-(U1-IO7-Pad28)*%
X119320000Y-94530000D03*
%TO.P,U1,29,IO8*%
%TO.N,SDA*%
X119320000Y-91990000D03*
%TO.P,U1,30,IO9*%
%TO.N,RST*%
X119320000Y-89450000D03*
%TO.P,U1,31,IO34*%
%TO.N,unconnected-(U1-IO34-Pad31)*%
X119320000Y-86910000D03*
%TO.P,U1,32,IO36*%
%TO.N,SCK*%
X119320000Y-84370000D03*
%TO.P,U1,33,IO37*%
%TO.N,MISO*%
X119320000Y-81830000D03*
%TO.P,U1,34,IO35*%
%TO.N,MOSI*%
X119320000Y-79290000D03*
%TD*%
D13*
%TO.N,GND*%
X115250000Y-82750000D03*
X114000000Y-86500000D03*
%TD*%
D14*
%TO.N,GND*%
X115250000Y-82750000D02*
X114000000Y-84000000D01*
X114000000Y-84000000D02*
X114000000Y-86500000D01*
%TO.N,MISO*%
X119320000Y-81830000D02*
X118580000Y-81830000D01*
%TO.N,MOSI*%
X115500000Y-69835000D02*
X115505000Y-69830000D01*
%TD*%
M02*
